<?xml version="1.0" encoding="UTF-8"?>
<!DOCTYPE svg PUBLIC "-//W3C//DTD SVG 1.0//EN" "http://www.w3.org/TR/2001/REC-SVG-20010904/DTD/svg10.dtd">
<!-- Creator: CorelDRAW X7 -->
<svg xmlns="http://www.w3.org/2000/svg" xml:space="preserve" width="63.5mm" height="88.9mm" version="1.0" style="shape-rendering:geometricPrecision; text-rendering:geometricPrecision; image-rendering:optimizeQuality; fill-rule:evenodd; clip-rule:evenodd"
viewBox="0 0 2318 3246"
 xmlns:xlink="http://www.w3.org/1999/xlink">
 <defs>
  <style type="text/css">
   <![CDATA[
    .fil2 {fill:black}
    .fil0 {fill:#4D4D4D}
    .fil1 {fill:#D4D4D4}
    .fil3 {fill:yellow}
   ]]>
  </style>
 </defs>
 <g id="Layer_x0020_1">
  <metadata id="CorelCorpID_0Corel-Layer"/>
  <g id="_2960982436688">
   <path id="path3938" class="fil0" d="M1503 3162c-104,53 -221,84 -344,84 -123,0 -240,-31 -343,-84l687 0z" inkscape:connector-curvature="0"/>
   <path id="path3940" class="fil1" d="M1159 0c640,0 1159,542 1159,1211 0,499 -288,928 -701,1114l0 114c0,52 -40,94 -89,94l-738 0c-49,0 -89,-42 -89,-94l0 -114c-412,-186 -701,-615 -701,-1114 0,-669 519,-1211 1159,-1211z" inkscape:connector-curvature="0"/>
   <path class="fil2" d="M1535 2562l-751 0c-46,0 -83,38 -83,85l0 0c0,47 37,85 83,85l751 0c45,0 82,-38 82,-85l0 0c0,-47 -37,-85 -82,-85z"/>
   <path class="fil2" d="M1535 2762l-751 0c-46,0 -83,38 -83,85l0 0c0,47 37,85 83,85l751 0c45,0 82,-38 82,-85l0 0c0,-47 -37,-85 -82,-85z"/>
   <path class="fil2" d="M1535 2962l-751 0c-46,0 -83,38 -83,85l0 0c0,47 37,85 83,85l751 0c45,0 82,-38 82,-85l0 0c0,-47 -37,-85 -82,-85z"/>
   <path id="path3948" class="fil3" d="M1472 1198c26,1 52,4 79,12 129,35 199,158 212,292 13,134 -28,284 -123,392 -171,195 -227,263 -231,268l0 371 -62 0 0 -384c0,-8 3,-15 8,-21 0,0 63,-76 239,-277 82,-93 118,-227 107,-343 -11,-116 -65,-208 -165,-236 -23,-6 -44,-9 -64,-9 -161,-1 -287,185 -287,185 -6,9 -16,15 -26,15 -10,0 -20,-6 -25,-15 0,0 -126,-186 -288,-185 -20,0 -41,3 -63,9 -100,28 -155,120 -166,236 -11,116 25,250 107,343 176,201 239,277 239,277 5,6 8,13 8,21 0,0 0,0 0,0l0 384 -62 0 0 -371c-3,-5 -60,-73 -230,-268 -95,-108 -136,-258 -124,-392 13,-134 84,-257 212,-292 27,-8 54,-11 79,-12 152,0 265,118 313,179 48,-61 161,-179 313,-179l0 0z" inkscape:connector-curvature="0"/>
  </g>
 </g>
</svg>
